<?xml version="1.0" standalone="no"?>
<!DOCTYPE svg PUBLIC "-//W3C//DTD SVG 20010904//EN"
 "http://www.w3.org/TR/2001/REC-SVG-20010904/DTD/svg10.dtd">
<svg version="1.0" xmlns="http://www.w3.org/2000/svg"
 width="880.000000pt" height="821.000000pt" viewBox="0 0 880.000000 821.000000"
 preserveAspectRatio="xMidYMid meet">
<metadata>
Created by potrace 1.16, written by Peter Selinger 2001-2019
</metadata>
<g transform="translate(0.000000,821.000000) scale(0.100000,-0.100000)"
fill="#000000" stroke="none">
<path d="M5358 7780 c-119 -25 -178 -45 -281 -97 -238 -118 -332 -210 -713
-699 -320 -410 -363 -465 -513 -649 -313 -385 -521 -614 -832 -920 -178 -175
-493 -455 -511 -455 -4 0 -8 31 -8 68 0 100 -26 359 -50 488 -90 499 -316 837
-660 985 -167 72 -237 84 -485 84 -190 0 -236 -3 -333 -23 -161 -32 -212 -54
-282 -119 -67 -61 -112 -142 -131 -231 -20 -99 -6 -306 31 -452 58 -228 187
-543 350 -855 59 -114 80 -164 85 -206 9 -72 -7 -251 -50 -559 -46 -328 -73
-560 -81 -706 l-7 -121 -49 -13 c-84 -21 -163 -68 -232 -136 -142 -140 -210
-370 -187 -633 13 -139 31 -217 83 -349 191 -490 643 -1085 985 -1298 199
-124 481 -196 648 -165 127 23 260 119 316 226 22 42 27 46 54 41 17 -2 82
-14 145 -25 196 -34 357 -44 584 -38 359 10 670 75 1020 213 386 153 721 351
1026 609 63 53 144 121 180 151 270 228 774 489 1889 978 844 371 893 399 974
553 54 105 70 171 65 277 -5 105 -31 174 -101 265 -133 172 -455 298 -707 276
-41 -4 -154 -27 -250 -51 -309 -78 -1001 -212 -1048 -202 -18 4 302 248 559
426 201 138 536 355 759 492 289 176 364 238 449 370 64 98 86 176 86 300 0
185 -57 311 -210 466 -190 192 -441 299 -731 311 -254 11 -437 -40 -689 -192
-38 -23 -236 -136 -440 -250 -203 -115 -444 -253 -534 -307 -90 -54 -166 -97
-167 -95 -4 4 144 233 333 513 159 235 300 427 432 589 140 170 153 189 190
262 45 88 61 146 67 243 19 270 -167 513 -477 625 -156 56 -383 71 -551 35z
m437 -230 c160 -50 288 -147 343 -260 23 -47 27 -68 27 -141 0 -78 -3 -91 -37
-160 -21 -42 -76 -121 -128 -184 -218 -262 -401 -521 -802 -1133 -143 -219
-303 -457 -355 -530 -140 -196 -225 -337 -318 -527 -79 -160 -192 -441 -182
-452 3 -2 76 94 162 214 346 480 500 648 715 783 231 144 527 321 730 437 107
60 305 173 439 249 383 218 392 222 471 248 102 34 177 46 284 46 466 0 866
-353 756 -666 -40 -116 -126 -200 -325 -321 -809 -491 -1512 -1000 -1866
-1353 -177 -177 -281 -300 -401 -475 -82 -119 -183 -293 -176 -300 5 -5 172
140 558 483 120 106 215 182 246 197 53 25 110 36 294 55 281 30 953 161 1215
237 226 66 498 6 644 -140 28 -28 58 -70 67 -94 35 -91 -3 -235 -80 -300 -55
-46 -277 -151 -842 -399 -830 -362 -1230 -557 -1569 -761 -181 -108 -285 -183
-437 -314 -312 -268 -525 -408 -853 -562 -623 -291 -1238 -360 -1873 -211
-205 48 -351 144 -593 391 -249 253 -478 567 -628 862 -116 229 -158 398 -168
676 -8 251 9 451 82 975 51 362 63 589 36 680 -7 25 -60 138 -117 252 -236
470 -330 739 -341 974 -8 169 18 239 105 283 87 45 432 75 600 53 381 -52 630
-321 736 -796 41 -181 57 -336 64 -613 7 -244 8 -263 28 -290 23 -31 77 -49
115 -40 29 8 229 162 404 312 471 405 914 890 1510 1655 495 635 583 736 714
824 118 78 215 120 352 151 96 22 303 14 394 -15z m-4892 -4567 c23 -306 140
-592 408 -988 135 -200 287 -385 463 -561 172 -171 290 -266 411 -330 41 -21
75 -42 75 -47 0 -4 -19 -28 -41 -52 -78 -85 -208 -96 -394 -34 -177 59 -270
118 -427 268 -234 224 -446 518 -607 841 -96 194 -138 317 -151 449 -27 263
57 477 215 546 38 17 41 12 48 -92z"/>
<path d="M2270 3343 c-8 -3 -94 -83 -190 -177 -191 -187 -322 -306 -448 -406
-44 -36 -88 -79 -98 -96 -37 -68 16 -154 96 -154 34 0 53 11 137 78 210 168
610 549 638 609 41 85 -46 179 -135 146z"/>
<path d="M2854 2847 c-341 -255 -480 -352 -707 -493 -104 -65 -195 -127 -203
-138 -8 -11 -14 -38 -14 -59 0 -51 52 -107 99 -107 39 0 59 10 241 123 201
124 389 256 707 493 243 182 273 207 282 240 20 72 -28 134 -104 134 -38 0
-63 -16 -301 -193z"/>
<path d="M3090 2177 c-235 -118 -320 -153 -560 -233 -159 -52 -200 -70 -222
-94 -41 -45 -38 -92 7 -137 34 -34 38 -35 88 -30 58 6 295 82 457 146 100 40
490 231 519 255 28 22 43 75 31 111 -15 46 -42 67 -92 72 -38 3 -63 -6 -228
-90z"/>
</g>
</svg>
