<?xml version="1.0" standalone="no"?>
<!DOCTYPE svg PUBLIC "-//W3C//DTD SVG 20010904//EN"
 "http://www.w3.org/TR/2001/REC-SVG-20010904/DTD/svg10.dtd">
<svg version="1.0" xmlns="http://www.w3.org/2000/svg"
 width="238.000000pt" height="212.000000pt" viewBox="0 0 238.000000 212.000000"
 preserveAspectRatio="xMidYMid meet">
<metadata>
Created by potrace 1.16, written by Peter Selinger 2001-2019
</metadata>
<g transform="translate(0.000000,212.000000) scale(0.100000,-0.100000)"
fill="#000000" stroke="none">
<path d="M1150 1980 c-187 -40 -415 -148 -521 -247 -26 -24 -28 -24 -57 -9
-44 23 -136 21 -187 -4 -96 -46 -160 -125 -215 -264 -79 -196 -106 -447 -62
-568 47 -130 127 -197 217 -184 38 6 44 4 50 -14 12 -37 121 -174 191 -240
157 -147 360 -250 599 -302 133 -29 422 -36 536 -14 190 39 297 121 329 257 8
30 17 49 26 49 28 0 109 48 146 87 20 21 50 65 65 98 24 52 28 72 28 155 0 82
-4 103 -27 153 -15 32 -42 72 -59 88 l-31 29 27 31 c14 18 38 55 53 83 22 43
27 64 27 131 0 67 -5 88 -27 131 -58 111 -169 174 -308 174 l-78 0 -13 38
c-57 177 -192 307 -360 347 -86 20 -244 18 -349 -5z m336 -74 c74 -19 148 -63
194 -112 37 -40 88 -130 105 -183 l7 -24 -79 6 c-112 9 -224 47 -329 113 -49
31 -93 58 -98 61 -5 3 28 -30 73 -73 164 -158 266 -188 588 -175 89 3 158 -24
207 -80 79 -92 74 -206 -12 -300 -56 -61 -77 -67 -314 -100 l-162 -23 59 -13
c39 -8 119 -12 227 -11 l167 3 36 -35 c61 -59 81 -172 49 -279 -20 -68 -92
-145 -149 -159 -35 -9 -348 -32 -445 -32 -102 -1 96 -46 248 -56 98 -7 102 -8
96 -28 -36 -121 -152 -188 -360 -205 -306 -26 -620 52 -859 212 -134 90 -306
300 -336 412 -7 25 -9 92 -6 175 6 150 42 316 94 432 95 213 373 405 684 473
83 18 250 18 315 1z m-957 -252 c2 -2 -4 -14 -13 -26 -95 -131 -137 -226 -177
-409 -18 -81 -24 -135 -24 -244 0 -77 2 -151 5 -165 8 -38 -30 -38 -74 0 -84
74 -104 242 -53 452 57 233 132 353 246 395 31 11 78 10 90 -3z"/>
<path d="M568 1364 c-14 -14 -8 -53 10 -63 17 -9 138 -24 283 -36 63 -5 80 -3
93 10 19 20 21 39 4 53 -7 5 -71 15 -143 21 -71 6 -155 14 -185 17 -30 3 -58
3 -62 -2z"/>
<path d="M540 1135 c-38 -46 43 -80 340 -141 148 -31 182 -35 194 -24 19 15
21 44 4 57 -7 6 -75 22 -151 37 -76 15 -185 40 -242 57 -121 33 -128 34 -145
14z"/>
<path d="M526 951 c-13 -15 -15 -24 -8 -38 23 -43 340 -194 376 -180 21 8 32
36 20 54 -5 8 -49 31 -99 52 -49 20 -129 58 -177 84 -47 26 -88 47 -90 47 -3
0 -13 -9 -22 -19z"/>
</g>
</svg>
