<?xml version="1.0" standalone="no"?>
<!DOCTYPE svg PUBLIC "-//W3C//DTD SVG 20010904//EN"
 "http://www.w3.org/TR/2001/REC-SVG-20010904/DTD/svg10.dtd">
<svg version="1.0" xmlns="http://www.w3.org/2000/svg"
 width="860.000000pt" height="645.000000pt" viewBox="0 0 860.000000 645.000000"
 preserveAspectRatio="xMidYMid meet">
<metadata>
Created by potrace 1.16, written by Peter Selinger 2001-2019
</metadata>
<g transform="translate(0.000000,645.000000) scale(0.100000,-0.100000)"
fill="#000000" stroke="none">
<path d="M3400 6033 c-203 -16 -474 -65 -681 -124 -177 -50 -295 -93 -476
-176 l-143 -65 -51 46 c-102 92 -226 132 -386 124 -157 -8 -318 -71 -483 -187
-190 -134 -395 -410 -586 -786 -132 -261 -210 -471 -255 -685 -69 -328 4 -696
170 -860 83 -82 200 -130 316 -130 l50 0 28 -93 c98 -319 280 -662 494 -927
379 -471 957 -869 1568 -1080 602 -207 1275 -111 1944 277 l114 67 51 -18 c70
-25 349 -149 556 -246 281 -133 688 -347 1025 -540 221 -126 254 -143 351
-173 406 -128 744 121 804 593 31 244 -39 532 -180 740 -107 158 -215 255
-413 372 -67 39 -252 153 -412 253 -274 171 -467 289 -632 384 -40 23 -73 43
-73 44 0 5 614 -47 805 -69 201 -22 403 -52 572 -84 240 -46 368 -38 512 33
82 40 184 140 228 222 58 111 77 195 77 335 0 156 -25 264 -93 405 -87 181
-220 333 -388 442 -259 169 -492 219 -1543 333 -404 43 -689 80 -850 108 l-44
7 -13 115 c-26 247 -71 418 -153 581 -123 247 -327 443 -602 578 -189 94 -420
156 -672 180 -100 10 -429 12 -536 4z m560 -224 c583 -67 974 -342 1120 -790
42 -128 85 -399 64 -399 -3 0 -31 7 -62 16 -294 82 -536 200 -727 356 -33 27
-142 131 -243 231 l-183 182 82 -130 c192 -305 223 -349 329 -456 177 -179
369 -283 700 -383 270 -80 550 -124 1305 -201 410 -42 823 -102 1014 -146 420
-98 721 -433 721 -803 0 -229 -109 -375 -303 -406 -71 -11 -107 -7 -327 34
-302 56 -689 98 -1395 151 -250 19 -352 28 -585 55 -306 35 -586 27 -953 -26
-58 -8 -72 -24 -22 -24 20 0 84 -7 143 -15 59 -7 163 -21 232 -30 251 -33 557
-91 651 -124 65 -22 126 -52 279 -139 359 -202 516 -295 945 -563 154 -96 329
-203 389 -239 248 -148 402 -361 451 -626 20 -106 16 -277 -9 -367 -37 -135
-112 -240 -208 -292 -44 -24 -68 -30 -138 -33 -124 -6 -196 21 -482 184 -712
403 -1450 757 -1853 887 -315 102 -662 161 -910 155 l-130 -3 365 -132 c201
-73 405 -147 454 -164 104 -37 106 -33 -44 -109 -204 -102 -430 -181 -653
-226 -119 -25 -153 -28 -357 -28 -197 -1 -239 2 -339 22 -533 108 -1197 499
-1599 942 -292 322 -472 644 -599 1073 -33 113 -36 131 -36 252 1 143 21 266
74 440 135 447 401 955 622 1191 226 242 594 449 1013 569 407 117 829 157
1204 114z m-2150 -201 c40 -13 101 -50 97 -59 -1 -4 -40 -35 -86 -69 -256
-190 -455 -451 -663 -875 -197 -402 -312 -776 -325 -1062 l-6 -133 -29 0
c-109 0 -206 113 -243 285 -50 231 -32 410 70 704 129 370 395 818 598 1007
188 174 422 255 587 202z"/>
<path d="M1830 4783 c-75 -27 -91 -144 -26 -186 93 -60 836 -307 924 -307 66
0 115 79 89 142 -8 18 -20 38 -28 45 -8 6 -77 30 -154 53 -250 74 -437 136
-596 199 -150 59 -177 66 -209 54z"/>
<path d="M1589 4191 c-40 -40 -41 -98 -1 -140 58 -63 485 -288 952 -502 280
-129 331 -144 376 -114 54 35 63 113 18 158 -13 13 -126 70 -251 127 -329 148
-624 295 -816 404 -193 111 -226 119 -278 67z"/>
<path d="M1464 3735 c-34 -17 -64 -62 -64 -95 0 -42 31 -79 177 -213 190 -175
272 -240 468 -374 206 -142 199 -138 246 -124 56 17 82 55 76 111 -6 52 -18
64 -177 172 -216 147 -268 189 -564 460 -80 74 -114 87 -162 63z"/>
</g>
</svg>
